<svg width="14" height="14" viewBox="0 0 14 14" fill="none" xmlns="http://www.w3.org/2000/svg">
<path d="M7 0C3.13438 0 0 3.13438 0 7C0 10.8656 3.13438 14 7 14C10.8656 14 14 10.8656 14 7C14 3.13438 10.8656 0 7 0ZM7 12.8125C3.79063 12.8125 1.1875 10.2094 1.1875 7C1.1875 3.79063 3.79063 1.1875 7 1.1875C10.2094 1.1875 12.8125 3.79063 12.8125 7C12.8125 10.2094 10.2094 12.8125 7 12.8125ZM10.1 3.62344C10.0388 3.59953 9.9735 3.58791 9.90782 3.58925C9.84213 3.59059 9.77735 3.60486 9.71719 3.63125L5.48281 5.48438L3.63125 9.71875C3.575 9.84688 3.575 9.99219 3.63125 10.1203C3.68437 10.2422 3.78281 10.3375 3.90781 10.3859C3.96719 10.4094 4.02812 10.4203 4.09062 10.4203C4.15937 10.4203 4.22656 10.4062 4.29063 10.3781L8.525 8.525L10.3766 4.29063C10.4036 4.22883 10.4178 4.16221 10.4185 4.09477C10.4191 4.02733 10.4061 3.96046 10.3803 3.89815C10.3545 3.83585 10.3164 3.7794 10.2682 3.7322C10.22 3.68499 10.1628 3.648 10.1 3.62344ZM8.0125 7.35L8.42188 7.75937L7.75937 8.42188L7.35 8.0125L4.9375 9.06875L5.99219 6.65625L5.59375 6.25625L6.25625 5.59375L6.65469 5.99219L9.06875 4.9375L8.0125 7.35ZM6.25625 5.59375L5.59375 6.25625L5.99219 6.65625L7.35 8.0125L7.75937 8.42188L8.42188 7.75937L8.0125 7.35L6.65625 5.99219L6.25625 5.59375Z" fill="black" fill-opacity="0.85"/>
</svg>
