<svg width="44" height="45" viewBox="0 0 44 45" fill="none" xmlns="http://www.w3.org/2000/svg">
<path d="M22.0006 3.5C11.5069 3.5 3 12.0069 3 22.5C3 32.9931 11.5069 41.5 22 41.5C32.4937 41.5 41 32.9931 41 22.5C41 12.0069 32.4943 3.5 22.0006 3.5ZM22.0006 40.3584C12.9693 40.3584 5.64756 32.3628 5.64756 22.5C5.64756 12.6372 12.9687 4.64223 22.0006 4.64223C31.032 4.64223 38.3537 12.6378 38.3537 22.5006C38.3537 32.3634 31.032 40.3584 22.0006 40.3584Z" fill="#3772FF"/>
<path d="M27.4052 31.9902C30.9178 30.4151 34.7369 30.4207 38.0664 31.7018C38.4363 31.0273 38.7658 30.3273 39.0498 29.6048C35.3385 27.8884 30.9321 27.7264 26.9076 29.5313C25.0092 30.3827 23.3825 31.5891 22.0671 33.0365C20.7517 31.5891 19.1237 30.3827 17.2254 29.5313C13.184 27.719 8.75643 27.8896 5.03516 29.6272C5.33535 30.3435 5.67789 31.0367 6.06217 31.7037C9.39294 30.4207 13.2139 30.4145 16.7278 31.9902C20.6209 33.7359 23.3152 37.0542 24.3983 40.8596C24.8386 40.8054 25.2739 40.7357 25.7043 40.6516C25.5922 39.9297 25.4253 39.2191 25.2079 38.5247C26.6777 37.3644 28.4241 36.5068 30.3741 36.0708C31.9137 35.7264 33.4501 35.6741 34.9268 35.8759C35.5658 35.2394 36.1575 34.5568 36.6975 33.8324C34.6914 33.3199 32.5377 33.2595 30.3791 33.7421C28.1264 34.2454 26.1315 35.2823 24.4954 36.688C24.1772 36.0073 23.8066 35.3496 23.3862 34.7231C24.5234 33.612 25.8706 32.6784 27.4052 31.9902Z" fill="#3772FF"/>
<path d="M13.7542 33.7439C11.613 33.265 9.47674 33.3217 7.48438 33.8224C8.04677 34.5474 8.66086 35.2293 9.32291 35.8627C10.7635 35.6796 12.2594 35.7376 13.7585 36.0726C16.9062 36.7764 19.5239 38.5763 21.302 40.981C21.5754 40.9928 21.8501 41.0003 22.126 41.0003C22.4094 41.0003 22.6902 40.9928 22.9705 40.9803C21.2117 37.4297 17.9226 34.6757 13.7542 33.7439Z" fill="#3772FF"/>
<path d="M36.0539 22.2675C34.8444 21.149 33.4998 20.4116 32.0231 20.249C32.7051 18.659 33.3696 17.1082 34.0347 15.5568C33.9806 15.4696 33.9258 15.383 33.8716 15.2958C32.1869 15.2304 30.5016 15.165 28.8162 15.099C29.3369 13.7164 29.2759 12.2335 28.8636 10.7045C27.296 11.1224 25.9706 11.866 24.9218 13.1689C24.1969 11.5098 23.2415 10.1278 21.8775 8.78125C20.868 10.2542 19.9176 11.6418 18.9578 13.0413C18.0086 11.828 16.6821 11.1093 15.1319 10.7176C14.7227 12.2659 14.6829 13.7438 15.1724 15.094C13.4696 15.1625 11.8017 15.2292 10.0654 15.2989C10.487 17.1748 11.1553 18.7443 12.1704 20.2359C10.4901 20.4085 9.16228 21.1577 7.94531 22.2607C9.0346 23.4172 10.2696 24.2611 11.8783 24.6037C10.8738 25.7658 10.1401 26.9922 9.57956 28.3424C11.9288 28.0727 14.3721 28.3698 16.7045 29.3109C18.2061 28.713 19.3944 27.6405 20.3697 26.2566C20.4245 26.2959 20.48 26.3357 20.5348 26.375C20.0508 27.7563 19.5669 29.1384 19.0799 30.5285C20.2022 31.2391 21.203 32.0849 22.0675 33.0359C22.9045 32.1148 23.868 31.2908 24.9474 30.5945C24.451 29.1682 23.9608 27.7595 23.4707 26.3513C24.6222 27.8878 25.9519 28.8288 27.3514 29.3414C29.6813 28.386 32.124 28.0765 34.4757 28.3337C33.7358 27.0538 33.0177 25.8119 32.2921 24.5557C33.757 24.2643 34.9683 23.4085 36.0539 22.2675ZM27.7089 12.7485C27.9362 14.2987 27.1241 15.7237 25.6082 16.3714C25.4718 14.6338 26.297 13.2312 27.7089 12.7485ZM16.2878 12.7049C17.8505 13.4274 18.6358 14.8368 18.3593 16.3465C16.9181 15.7723 16.0966 14.3492 16.2878 12.7049ZM10.3051 22.3958C11.3315 21.4099 13.1719 21.4566 14.4779 22.5017C13.337 23.4565 11.689 23.4147 10.3051 22.3958ZM11.4449 28.0335C13.0324 24.2823 16.3688 22.9863 19.8746 24.0158C18.1787 27.7918 14.9874 29.0076 11.4449 28.0335ZM12.1175 16.7059C15.8699 16.0943 19.5121 18.4186 19.968 21.7163C16.3545 22.4058 12.6874 20.0653 12.1175 16.7059ZM22.0008 20.6177C19.4411 17.6282 19.4505 14.2439 21.9722 11.2837C24.5251 13.2879 24.555 17.8313 22.0008 20.6177ZM31.8898 16.7189C30.7326 20.6501 27.7282 22.2314 24.0455 21.7313C24.3669 18.5058 28.2657 16.0139 31.8898 16.7189ZM32.5712 28.0148C29.1264 29.035 25.7502 27.7974 24.1508 24.0263C27.5874 22.9576 30.917 24.2661 32.5712 28.0148ZM29.5269 22.5042C30.7912 21.4753 32.388 21.4137 33.7302 22.3641C32.3469 23.4141 30.6722 23.4571 29.5269 22.5042Z" fill="#58BD7D"/>
</svg>
